<svg xmlns="http://www.w3.org/2000/svg" viewBox="0 0 166.81 166.79"><defs><style>.cls-1{font-size:28.8px;fill:#fff;font-family:MyriadPro-Regular, Myriad Pro;}</style></defs><g id="Layer_2" data-name="Layer 2"><g id="Layer_1-2" data-name="Layer 1"><text class="cls-1" transform="translate(73.28 24.39) rotate(-1.82)">Χ</text><text class="cls-1" transform="matrix(0.98, 0.19, -0.19, 0.98, 88.7, 24.03)">τ</text><text class="cls-1" transform="translate(99.65 26.25) rotate(19.14)">ί</text><text class="cls-1" transform="translate(105.51 27.78) rotate(29.38)">σ</text><text class="cls-1" transform="matrix(0.74, 0.67, -0.67, 0.74, 118.96, 35.56)">τ</text><text class="cls-1" transform="matrix(0.58, 0.82, -0.82, 0.58, 127.27, 42.7)">η</text><text class="cls-1" transform="translate(135.89 54.86) rotate(68.26)">κ</text><text class="cls-1" transform="matrix(0.17, 0.99, -0.99, 0.17, 140.84, 67.23)">ε</text><text class="cls-1" transform="matrix(0.02, 1, -1, 0.02, 142.64, 79.02)">	</text><text class="cls-1" transform="matrix(-0.16, 0.99, -0.99, -0.16, 142.43, 90.07)">	</text><text class="cls-1" transform="translate(139.35 103.41) rotate(112.64)"> </text><text class="cls-1" transform="translate(137.73 108.54) rotate(122.49)">α</text><text class="cls-1" transform="matrix(-0.73, 0.68, -0.68, -0.73, 129.77, 121.25)">π</text><text class="cls-1" transform="matrix(-0.87, 0.49, -0.49, -0.87, 119.1, 131.44)">ό</text><text class="cls-1" transform="translate(105.83 138.42) rotate(160.77)">	</text><text class="cls-1" transform="matrix(-0.97, 0.25, -0.25, -0.97, 101.16, 140.1)">	</text><text class="cls-1" transform="matrix(-1, 0.02, -0.02, -1, 87.7, 142.64)"> </text><text class="cls-1" transform="matrix(-1, -0.07, 0.07, -1, 82.05, 142.78)">	</text><text class="cls-1" transform="matrix(-0.97, -0.25, 0.25, -0.97, 74.21, 142.31)">τ</text><text class="cls-1" transform="matrix(-0.89, -0.45, 0.45, -0.89, 63.83, 139.97)">ο</text><text class="cls-1" transform="translate(50.83 133.44) rotate(-140.4)">ν</text><text class="cls-1" transform="matrix(-0.67, -0.75, 0.75, -0.67, 41.13, 125.12)">	</text><text class="cls-1" transform="matrix(-0.62, -0.78, 0.78, -0.62, 38.74, 122.54)">	</text><text class="cls-1" transform="matrix(-0.42, -0.91, 0.91, -0.42, 30.95, 111.28)"> </text><text class="cls-1" transform="translate(28.46 106.37) rotate(-107.7) scale(0.65 1)">Σ</text><text class="cls-1" transform="translate(25.64 97.46) rotate(-99.88) scale(0.65 1)">τ</text><text class="cls-1" transform="matrix(-0.03, -0.65, 1, -0.05, 24.37, 90.45)">έ</text><text class="cls-1" transform="translate(23.8 83.03) rotate(-83.93) scale(0.65 1)">φ</text><text class="cls-1" transform="translate(24.99 71.89) rotate(-73.92) scale(0.65 1)">α</text><text class="cls-1" transform="translate(27.64 62.69) rotate(-65.36) scale(0.65 1)">ν</text><text class="cls-1" transform="matrix(0.35, -0.54, 0.84, 0.55, 30.91, 55.32)">ο</text><text class="cls-1" transform="translate(36.19 47.31) rotate(-48.82) scale(0.65 1)">ς</text></g></g></svg>