<svg xmlns="http://www.w3.org/2000/svg" viewBox="0 0 502.24 262.47"><defs><style>.cls-1,.cls-2{fill:#fff;}.cls-2{font-size:26px;font-family:BradleyHandITC, Bradley Hand ITC;}</style></defs><g id="Layer_2" data-name="Layer 2"><g id="Layer_1-2" data-name="Layer 1"><polygon class="cls-1" points="178.57 0 178.57 219.49 0 219.49 0 0 37.66 0 37.66 11.03 89.29 62.66 140.91 11.03 140.91 0 178.57 0"/><polygon class="cls-1" points="325.97 181.82 325.97 219.49 192.85 219.49 192.85 0 230.52 0 230.52 181.82 325.97 181.82"/><path class="cls-1" d="M459.64,164.62a54.87,54.87,0,0,1-54.87,54.87H340.25V0h64.52a54.87,54.87,0,1,1,0,109.74A54.88,54.88,0,0,1,459.64,164.62Z"/><text class="cls-2" transform="translate(399.94 252.12)">Holdings</text></g></g></svg>